<mxfile host="app.diagrams.net" modified="2023-10-09T18:49:35.487Z" agent="Mozilla/5.0 (X11; Linux x86_64) AppleWebKit/537.36 (KHTML, like Gecko) Chrome/117.0.0.0 Safari/537.36" etag="22Mp_GfKMs3tNXBq1FZv" version="22.0.4" type="device">
  <diagram name="Page-1" id="ZLgkCWae-BgPZ6wokrh3">
    <mxGraphModel dx="1266" dy="702" grid="1" gridSize="10" guides="1" tooltips="1" connect="1" arrows="1" fold="1" page="1" pageScale="1" pageWidth="827" pageHeight="1169" math="0" shadow="0">
      <root>
        <mxCell id="0" />
        <mxCell id="1" parent="0" />
        <mxCell id="mW6oyoReorYMUvsAvVY0-1" value="" style="sketch=0;outlineConnect=0;fontColor=#232F3E;gradientColor=none;fillColor=#232F3D;strokeColor=none;dashed=0;verticalLabelPosition=bottom;verticalAlign=top;align=center;html=1;fontSize=12;fontStyle=0;aspect=fixed;pointerEvents=1;shape=mxgraph.aws4.source_code;" vertex="1" parent="1">
          <mxGeometry x="120" y="420" width="57" height="78" as="geometry" />
        </mxCell>
        <mxCell id="mW6oyoReorYMUvsAvVY0-7" value="" style="shape=image;verticalLabelPosition=bottom;labelBackgroundColor=default;verticalAlign=top;aspect=fixed;imageAspect=0;image=data:image/png,iVBORw0KGgoAAAANSUhEUgAAAgAAAAIACAYAAAD0eNT6AAAAAXNSR0IArs4c6QAAIABJREFUeAHt3Q2wfV1d0PEf8Dy8yYvEQCgmIRCKpgwWpSUkMr2gjtikosSQjUPQTBNTjVSOTYjDizAO5kQ0SeMElS8gNGOKZUbIIG8pqEWJKPmSIiWC8Mh7zeZ57vMc7r3nnL3X3nvt9Vv7c2f+87//c/Za+7e+v9/6re89997zj9jPx40R8diIeEFE/HBEvC4i3hkRN0XE//MHAzUwuwY+HBHviojXR8TLI+K7I+JxEXHn/bQZK0UAgVYI3D4ivjYiXhYR79XgZzd4okQWS2rggxHxqoj4axFxx1aagzgQQKBfAsNXHm9z6Dv01UBTNTC86vZNEXG7fluPlSGAwFYEHh4Rr9H0m2r6JV81GtP3qw0/FxGP3qpJuC8CCPRH4AkR8QcOf4e/GkhRAx+LiKf314asCAEEahIYXk58pqafoun7yr7vr+xL8vsv/WxAzXbpXgj0Q2A4/F/q8Hf4q4HUNTD8Vs49+2lLVoIAAjUI+MrfV5QlX3Ua017dvIEE1GiZ7oFAHwSG7/lr5BiogX5qgAT00ZutAoFVCQw/7e8H/vpp/A5xubyoARKwaus0OQL5CfhVPwfGxYHh7/5qgQTk79FWgMAqBIY3+dH0MVADfdcACVilfZoUgbwEhrf39Q5/fTd+B7v8XtQACcjbq0WOwOIEHu+rf69+qIFd1QAJWLyNmhCBnAT8zr+vDi++OvT3fmqBBOTs16JGYDECN0TE7/rqb1df/Tnk93PIn8s1CVislZoIgXwEHuPwd/irgV3XAAnI17dFjMAiBL5L89918z/3FaLn9/FqAQlYpJ2aBIFcBH6IABAANaAGIoIE5OrdokVgNoGf1vw1fzWgBm6pARIwu6WaAIE8BN6p+Wv+akANHNQACcjTv0WKwCwCNx1sfN/v3cf3e+VZns/VAAmY1VYNRiAHgXONwPMOCzWwzxogATl6uCgRKCague+zucu7vI+pARJQ3FoNRKB9AmOagGscFmpgvzVAAtrv4yJEoIiAxr7fxi73cj+2BkhAUXs1CIG2CYxtAK5zWKiBfdcACWi7l4sOgckENPV9N3X5l/8pNUACJrdYAxBol8CUze9ah4UaUAMkoN1+LjIEJhHQ0DV0NaAGptYACZjUZl2MQJsEpm581zss1IAaGGqABLTZ00WFwGgCmrlmrgbUQGkNkIDRrdaFCLRHoHTjG+fQUANqYKgBEtBeXxcRAqMIaOKauBpQA3NrgASMarcuQqAtAnM3vvEODzWgBoYaIAFt9XbRIHCWgOateasBNbBUDZCAsy3XBQi0Q2CpjW8eh4gaUANDDZCAdvq7SBA4SUDT1rTVgBpYugZIwMm260kE2iCw9MY3n8NEDaiBoQZIQBs9XhQIHCWgWWvWakANrFUDJOBo6/UEAtsTWGvjm9ehogbUwFADJGD7Pi8CBK4loElr0mpADaxdAyTg2vbrQQS2JbD2xje/w0UNqIGhBkjAtr3e3RG4QiBTc35PRLzaHwwS18DbY98yQAKutGAPILAdgUwCMBz+PhDITODpOxcArwRkrl6xd0eAAHSXUgtqmAABuPkVEK8ENFykQtsPAQKwn1xb6fYECMBt3wIhAdvXowh2ToAA7LwALL8qAQJwmwD4dkDV0nMzBK4SIABXmXgEgbUIEIBPFQASsFalmReBEQQIwAhILkFgIQIE4KoAkICFiss0CEwlQACmEnM9AuUECMD1AkACymvKSASKCRCAYnQGIjCZAAE4LgAkYHI5GYDAPAIEYB4/oxGYQoAAnBYAEjClmlyLwEwCBGAmQMMRmECAAJwXABIwoaBcisAcAgRgDj1jEZhGgACMEwASMK2uXI1AEQECUITNIASKCBCA8QJAAopKzCAExhMgAONZuRKBuQQIwDQBIAFzK854BE4QIAAn4HgKgYUJEIDpAkACFi5C0yFwQYAAXJDwNwLrEyAAZQJAAtavTXfYIQECsMOkW/JmBAhAuQCQgM3K1o17JUAAes2sdbVIgADMEwAS0GJViyktAQKQNnUCT0iAAMwXABKQsPCF3CYBAtBmXkTVJwECsIwAkIA+94dVVSZAACoDd7tdEyAAywkACdj1VrL4JQgQgCUomgOBcQQIwLICQALG1Z2rELiWAAG4FosHEViFAAFYXgBIwCqlatI9ECAAe8iyNbZCgACsIwAkoJUKF0cqAgQgVboEm5wAAVhPAEhA8s0h/PoECEB95u64XwIEYF0BIAH73VtWXkCAABRAMwSBQgIEYH0BIAGFxWnY/ggQgP3l3Iq3I0AA6ggACdiuxt05EQECkChZQk1PgADUEwASkH67WMDaBAjA2oTNj8BtBAhAXQEgAbfVns8QuEKAAFxB4gEEViNAAOoLAAlYrZxNnJ0AAcieQfFnIkAAthEAEpBpl4i1GgECUA21GyEQBGA7ASABNiAClwgQgEtA/BOBFQkQgG0FgASsWNymzkeAAOTLmYjzEiAA2wsACci7f0S+MAECsDBQ0yFwggABaEMASMCJIvXUfggQgP3k2kq3J0AA2hEAErD9fhDBxgQIwMYJcPtdESAAbQkACdjV9rPYywQIwGUi/o3AegQIQHsCQALWq3czN06AADSeIOF1RYAAtCkAJKCrbWYxYwkQgLGkXIfAfAIEoF0BIAHz69sMyQgQgGQJE25qAgSgbQEgAam3l+CnEiAAU4m5HoFyAgSgfQEgAeX1bWQyAgQgWcKEm5oAAcghACQg9TYT/FgCBGAsKdchMJ8AAcgjACRgfr2boXECBKDxBAmvKwIEIJcAkICutp/FXCZAAC4T8W8E1iNAAPIJAAlYbz+YeWMCBGDjBLj9rggQgJwCQAJ2tU33s1gCsJ9cW+n2BAhAXgEgAdvvHxEsTIAALAzUdAicIEAAcgsACThR3J7KR4AA5MuZiPMSIAD5BYAE5N1/Ir9EgABcAuKfCKxIgAD0IQAkYMVNYup6BAhAPdbuhAAB6EcASID9nJ4AAUifQgtIRIAA9CUAJCDR5hPqVQIE4CoTjyCwFgEC0J8AkIC1dot5VydAAFZH7AYI3EqAAPQpACTg1hL3SSYCBCBTtsSanQAB6FcASED23bnD+AnADpNuyZsRIAB9CwAJ2GxruXEJAQJQQs0YBMoIEID+BYAElO0NozYgQAA2gO6WuyVAAPYhACRgt1s818IJQK58iTY3AQKwHwEgAbn36i6iJwC7SLNFNkKAAOxLAEhAIxtPGNcTIADXc/EoAmsQIAD7EwASsMZOMuciBAjAIhhNgsAoAgRgnwJAAkZtDxfVJkAAahN3vz0TIAD7FQASsOed3+jaCUCjiRFWlwQIwL4FgAR0ua3zLooA5M2dyPMRIAAEgATk27fdRkwAuk2thTVIgAAQgIue+4aIuGeDNSqkHRG4KMYMf796R3mx1D4JEAACcNhrSUCf+zzNqg6LsfXPCUCashLoEQIEgABc7rMk4Mhm8fD6BC4XY8v/JgDr14M7rEuAABCA63osCVh335n9CIHrirHVxwjAkSR6OA0BAkAAjvVXEpBmG/cT6LFibPFxAtBP3e11JQSAAJzqrSRgr51ho3WfKsbWniMAGxWJ2y5GgAAQgHN9lQQstt1MdI7AuWJs6XkCcC6bnm+dAAEgAGN6KglofSd3Et+YYmzlGgLQSdHteBkEgACM7ackYMeNotbSxxZjC9cRgFpV4T5rESAABGBKLyUBa+1E836SwJRi3PpaAqBosxMgAARgah8lAdl3fcPxTy3GLa8nAA0XktBGESAABKCkh5KAUdvLRVMJlBTjVmMIwNTsur41AgSAAJT2TxLQ2m7uIJ7SYtxiHAHooOB2vgQCQADm9E4SsPMGsvTy5xRj7bEEYOnsm682AQJAAOb2TRJQe9d2fL+5xVhzPAHouBB3sjQCQACW6JkkYCcNY+1lLlGMteYgAGtXg/nXJkAACMBS/ZIErL1bdzD/UsVYYx4CsIOC7HyJBIAALNkrSUDnDWPt5S1ZjGvPRQDWrgbzr02AABCApfskCVh713Y8/9LFuOZ8BKDjQtzJ0ggAAVijR5KAnTSQpZe5RjGuNScBWDr75qtNgAAQgLX6IwmovZs7uN9axbjGvASgg4Lb+RIIAAFYozdezEkCdt5gpi7/onAy/E0ApmbX9a0RIAAEYO1eO0jA3VorfPG0SWDtYlxyfgLQZg2JajwBAkAAluyJx+Z6ZUTcbnxZunKvBI4VUIuPE4C9Vmk/6yYABKBWb31WP9vGStYiUKsYl7gPAVirCsxbiwABIABL9MKxc3x9rcJ2n5wExhZSC9cRgJw1JurbCBAAAlCzl743Iu51W/n5DIFPJVCzGOfeiwB8au78Kx8BAkAA5vbBqeOfl2+biLgWganFtOX1BKBWVbjPWgSeGg7ALXvIHu99U0Tcf62CNm9uApk2BAHIXWuij/gaAhCZek4vsf4zmw+B6whkKnACcF0GPZaJwCMJAAHYoAaGnwW4MdNGEWsdAgSgDmd3QWAg8FkbNP9Me1ys632L6CtsQQQuE8i04bwCcDl7/p2NwA0R8RES4FWADWrge7JtFvGuT4AArM/YHRA4JPATGzT/TPtcrOu8CvArh0XocwQGApk2m1cA1GwPBJ6WbN9l6hFiPd3T79rDBrKG5Qhk2jAEYLm8m2k7Ap8ZEZ8gAam++MjUJ0/F+uDtyt6dWyRwqlhae44AtFhBYioh8DMEgABsUAOPKilWY/ol0NohfyoeAtBvHe5tZV+1QfM/tbc8d/ql8174PGFvG816TxPIVNgE4HQuPZuLwGtJgFcBKtfA38i1RUS7NgECsDZh8yNwPYEvqdz8M+11sa7zisTwVtQ+ELiVQKaN5hWAW9Pmk04IvJQEeBWgYg0QgE4ax1LLIABLkTQPAtMJ3CUi3lzxAMi038W6/KsABGD6Hu16RKZN5hWArktxt4sbfi3wN0iAVwIq1AAB2G2buX7hBOB6Lh5FoCaBL46I36twAGTa72L1CkDNPbjLe2XaZF4B2GWJ7mbRnxcRv0wCvBKwYg14BWA37WTcQgnAOE6uQqAGgXtHxH9e8QDItN/F6hWAGntu1/fItMm8ArDrUt3N4of/t/2ZEfEBIuDVgIVrwCsAu2kj4xZKAMZxchUCtQncLyJeFBEfXfgQyLTnxbrsqwAEoPYubvx+mTaYVwAaLybhrUJg+A9cnhMRbycCXhGYWQMEYJUtmndSApA3dyLfH4GHRsQzIuLlEfH6iPjViPjQzEMhUw8Q67xXBAjA/nrGyRVn2lBeATiZSk/umMDdI+LT/anO4InJ5IsA7LhJXLd0AnAdFY8hgAAC5wk8ngCch+SKdgkQgHZzIzIEEGibAAFoOz+iO0OAAJwB5GkEEEDgCAECcASMh3MQIAA58iRKBBBojwABaC8nIppAgABMgOVSBBBA4IAAATiA4dN8BAhAvpyJGAEE2iBAANrIgygKCRCAQnCGIYDA7gkQgN2XQG4ABCB3/kSPAALbESAA27F35wUIEIAFIJoCAQR2SYAA7DLt/SyaAPSTSytBAIG6BAhAXd7utjABArAwUNMhgMBuCBCA3aS6z4USgD7zalUIILA+AQKwPmN3WJEAAVgRrqkRQKBrAgSg6/T2vzgC0H+OrRABBNYhQADW4WrWSgQIQCXQboMAAt0RIADdpXRfCyIA+8q31SKAwHIECMByLM20AQECsAF0t0QAgS4IEIAu0rjfRRCA/ebeyhFAYB4BAjCPn9EbEyAAGyfA7RFAIC0BApA2dQIfCBAAdYAAAgiUESAAZdyMaoQAAWgkEcJAAIF0BAhAupQJ+JAAATik4XMEEEBgPAECMJ6VKxskQAAaTIqQEEAgBQECkCJNgjxGgAAcI+NxBBBA4DQBAnCaj2cbJ0AAGk+Q8BBAoFkCBKDZ1AhsDAECMIaSaxBAAIGrBAjAVSYeSUSAACRKllARQKApAgSgqXQIZioBAjCVmOsRQACBmwkQAJWQmgABSJ0+wSOAwIYECMCG8N16PgECMJ+hGRBAYJ8ECMA+897NqglAN6m0EAQQqEyAAFQG7nbLEiAAy/I0GwII7IcAAdhPrrtcKQHoMq0WhQACFQgQgAqQ3WI9AgRgPbZmRgCBvgkQgL7z2/3qCED3KbZABBBYiQABWAmsaesQIAB1OLsLAgj0R4AA9JfTXa2IAOwq3RaLAAILEiAAC8I0VX0CBKA+c3dEAIE+CBCAPvK421UQgN2m3sIRQGAmAQIwE6Dh2xIgANvyd3cEEMhLgADkzZ3II4IAKAMEEECgjAABKONmVCMECEAjiRAGAgikI0AA0qVMwIcECMAhDZ8jgAAC4wkQgPGsXNkgAQLQYFKEhAACKQgQgBRpEuQxAgTgGBmPI4AAAqcJEIDTfDzbOAEC0HiChIcAAs0SIADNpkZgYwgQgDGUXIMAAghcJUAArjLxSCICBCBRsoSKAAJNESAATaVDMFMJEICpxFyPAAII3EyAAKiE1AQIQOr0CR4BBDYkQAA2hO/W8wkQgPkMzYAAAvskQAD2mfduVk0AukmlhSCAQGUCBKAycLdblgABWJan2RBAYD8ECMB+ct3lSglAl2m1KAQQqECAAFSA7BbrESAA67E1MwII9E2AAPSd3+5XRwC6T7EFIoDASgQIwEpgTVuHAAGow9ldEECgPwIEoL+c7mpFBGBX6bZYBBBYkAABWBCmqeoTIAD1mbsjAgj0QYAA9JHH3a6CAOw29RaOAAIzCRCAmQAN35YAAdiWv7sjgEBeAgQgb+5EHhEEQBkggAACZQQIQBk3oxohQAAaSYQwEEAgHQECkC5lAj4kQAAOafgcAQQQGE+AAIxn5coGCRCABpMiJAQQSEGAAKRIkyCPESAAx8h4HAEEEDhNgACc5uPZxgkQgMYTJDwEEGiWAAFoNjUCG0OAAIyh5BoEEEDgKgECcJWJRxIRIACJkiVUBBBoigABaCodgplKgABMJeZ6BBBA4GYCBEAlpCZAAFKnT/AIILAhAQKwIXy3nk+AAMxnaAYEENgnAQKwz7x3s2oC0E0qLQQBBCoTIACVgbvdsgQIwLI8zYYAAvshQAD2k+suV0oAukyrRSGAQAUCBKACZLdYjwABWI+tmRFAoG8CBKDv/Ha/OgLQfYotEAEEViJAAFYCa9o6BAhAHc7uggAC/REgAP3ldFcrIgC7SrfFIoDAggQIwIIwTVWfAAGoz9wdEUCgDwIEoI887nYVBGC3qbdwBBCYSYAAzARo+LYECMC2/N0dAQTyEiAAeXMn8oggAMoAAQQQKCNAAMq4GdUIAQLQSCKEgQAC6QgQgHQpE/AhAQJwSMPnCCCAwHgCBGA8K1c2SIAANJgUISGAQAoCBCBFmgR5jAABOEbG4wgggMBpAgTgNB/PNk6AADSeIOEhgECzBAhAs6kR2BgCBGAMJdcggAACVwkQgKtMPJKIAAFIlCyhIoBAUwQIQFPpEMxUAgRgKjHXI4AAAjcTIAAqITUBApA6fYJHAIENCRCADeG79XwCBGA+QzMggMA+CRCAfea9m1UTgG5SaSEIIFCZAAGoDNztliVAAJblaTYEENgPAQKwn1x3uVIC0GVaLQoBBCoQIAAVILvFegQIwHpszYwAAn0TIAB957f71RGA7lNsgQggsBIBArASWNPWIUAA6nB2FwQQ6I8AAegvp7taEQHYVbotFgEEFiRAABaEaar6BAhAfebuiAACfRAgAH3kcberIAC7Tb2FI4DATAIEYCZAw7clQAC25e/uCCCQlwAByJs7kUcEAVAGCCCAQBkBAlDGzahGCBCARhIhDAQQSEeAAKRLmYAPCRCAQxo+RwABBMYTIADjWbmyQQIEoMGkCAkBBFIQIAAp0iTIYwQIwDEyHkcAAQROEyAAp/l4tnECBKDxBAkPAQSaJUAAmk2NwMYQIABjKLkGAQQQuEqAAFxl4pFEBAhAomQJFQEEmiJAAJpKh2CmEiAAU4m5HgEEELiZAAFQCakJEIDU6RM8AghsSIAAbAjfrecTIADzGZoBAQT2SYAA7DPv3ayaAHSTSgtBAIHKBAhAZeButywBArAsT7MhgMB+CBCA/eS6y5USgC7TalEIIFCBAAGoANkt1iNAANZja2YEEOibAAHoO7/dr44AdJ9iC0QAgZUIEICVwJq2DgECUIezuyCAQH8ECEB/Od3VigjArtJtsQggsCABArAgTFPVJ0AA6jN3RwQQ6IMAAegjj7tdBQHYbeotHAEEZhIgADMBGr4tAQKwLX93RwCBvAQIQN7ciTwiCIAyQAABBMoIEIAybkY1QoAANJIIYSCAQDoCBCBdygR8SIAAHNLwOQIIIDCeAAEYz8qVDRIgAA0mRUgIIJCCAAFIkSZBHiNAAI6R8TgCCCBwmgABOM3Hs40TIACNJ0h4CCDQLAEC0GxqBDaGAAEYQ8k1CCCAwFUCBOAqE48kIkAAEiVLqAgg0BQBAtBUOgQzlQABmErM9QgggMDNBAiASkhNgACkTp/gEUBgQwIEYEP4bj2fAAGYz9AMCCCwTwIEYJ9572bVBKCbVFoIAghUJkAAKgN3u2UJEIBleZoNAQT2Q4AA7CfXXa6UAHSZVotCAIEKBAhABchusR4BArAeWzMjgEDfBAhA3/ntfnUEoPsUWyACCKxEgACsBNa0dQgQgDqc3QUBBPojQAD6y+muVkQAdpVui0UAgQUJEIAFYZqqPgECUJ+5OyKAQB8ECEAfedztKgjAblNv4QggMJMAAZgJ0PBtCRCAbfm7OwII5CVAAPLmTuQRQQCUAQIIIFBGgACUcTOqEQIEoJFECAMBBNIRIADpUibgQwIE4JCGzxFAAIHxBAjAeFaubJAAAWgwKUJCAIEUBAhAijQJ8hgBAnCMjMcRQACB0wQIwGk+nm2cAAFoPEHCQwCBZgkQgGZTI7AxBAjAGEquQQABBK4SIABXmXgkEQECkChZQkUAgaYIEICm0iGYqQQIwFRirkcAAQRuJkAAVEJqAgQgdfoEjwACGxIgABvCd+v5BAjAfIZmQACBfRIgAPvMezerJgDdpLLLhdwuIr4gIr45Il4UEf8pIl7jDwaN1MAvJns79V9qhNvhHn51RDwvIv5KRPyRLrtYw4siAA0nZ+ehPeCWAz9TjYo11/8vIl9t5esTEfG9EXHXnfe+asvPtAEGU/SxDwJPjoj3JfvqKtNeEmtbB598fGo+3hERf3IfrW7bVWYqPAKwba3Uuvufi4jhK4FMtSlW+VIDy9bAuyPiPrWazl7vk6loCUD/VXr3iHiXw5/8qAE1EBGv6L/lbbtCArAtf3f/VALP1/g1fjWgBg5q4Cs/tUX415IECMCSNM01l8CbDzZ+ptoU67Iv/+KJ50UNDF8U+FiJwAXkDH/7FsBKRdDItDdGxIcIgK/+1IAaOKiBn2qkP3UZRoaD/yJGAtBlCd66qC862PQXOfe3rwTVwL5r4L23dgifLE4g0+YiAIunv6kJh5/+z1SPYpUvNVCnBppqVD0Fk6mACUBPlXd1LQSgTjPNtOfFqiaGGvCxEoFMG4wArFQEjUxLADT7TP1IrPXqtZEW1V8YmYqYAPRXf4crIgD1GmqmfS9WdXHYJ3y+IIFMm4sALJj4BqciABp9pn4k1nr12mC76iOkTEVMAPqouWOrIAD1GmqmfS9WdXGsZ3h8JoFMm4sAzEx248MJgEafqR+JtV69Nt668oaXqYgJQN46GxM5AajXUDPte7GqizH9wzUFBDJtLgJQkOBEQwiARp+pH4m1Xr0mamO5Qs1UxAQgV21NjZYA1Guomfa9WNXF1F7i+pEEMm0uAjAyqUkvIwAafaZ+JNZ69Zq0pbUfdqYiJgDt19OcCDMIwPdGxP06+/PHI+IPIuJLCtf19Y2/hfMvRMRnFa7tRbes7TsLx7dcK3+28bwdnk1z+oqxJwgcQm79cwJwIpEdPJVBAJ7bAefLSxgOqWHvvz4ibrj85Mh//9NGD5NBbL5g5BouX/aoiPj4Lev6+5ef7ODfn9tozq47hzrA3eYSroPd6mMEoM0aWioqArAUyWnzXAjAsO+/Y9rQW6++c0T8YoMHyt+8NcJpn9wrIn7tYD0EoN7L/dedP9Oy5+rRBK6D3epjBGB0WlNeSAC2SduhAHwsIr6sMIzhWwkfOjg0t+4j/65wHcOwl19aBwEgADPKqd2hW2/SKfcnAO3W0RKREYAlKE6f41AAhv34vyLi06dP88kRf+vSwTllfy957W9GxL0L1/At16yBABCAwnJqe9iSm27tuQhA27U0NzoCMJdg2fjLAjDs4x8sm+qTo/79NQfo2r3hcP7h+/aPKYz/oRHxwWviJwAEoLCk2h52uHFa/5wAtF1Lc6MjAHMJlo2/TgCGXvDNZdPFfSPit685RGv1l2cXxn3HiPjZI3ETAAJQWFZtD6u1KZe4DwFou5bmRkcA5hIsG39MAD4QEQ8pmzL+QkR84shhukQvODbHG2f8JsN3n4iXABCAwq3Q9rBjG6nFxwlA27U0NzoCMJdg2fhjAjD0gDdHxI1l08apA3WN/vL+iPicwljPCQsBIACFpdX2sDU24lpzEoC2a2ludARgLsGy8acEYNjLzyubNoaX1H/uxFfVS/eJJxbGOeZbFgSAABSWV9vDlt6Ea85HANqupbnREYC5BMvGnxOA4aX8ryibOoY3m7nuh+qW7hP/qjC+20XEj42QFAJAAApLrO1hS2/ENecjAG3X0tzoCMBcgmXjzwnAsKfn/FrdU0YcsHP6xi9HxN3Llh5PHxkbASAAhSXW9rA5G6/2WALQdi3Nja5HAXj+LW+OM7xBTst/xuzlV81I8I+MPGjHxHF4zUci4pGFcX3RhDcumioAw/8Z0XK+h9g+vFJODvOz1OeFKTbsHIGlElRjHgJwLpu5n+9RAF6YqMmO2cNPLSyxPxQRv7ECi2cUxnPXiPjvE+KZKgAvnjD3GO57v6YwzYaJXhJfAAAVsklEQVSdI5CpsAjAuWzmfp4AbPsy65hecFNEPKywzL784D/XGXOvc9f8ZETcvjCWfz7xgCYA29ZmYZoNO0fg3CZr6XkCcC6buZ8nANs22bF7/a0RcafCUnvOxIP3WEzviYjPLIzhLxfEQAC2rc3CVBt2jsCxDdbi4wTgXDZzP08Atm2yU/b88K2Nko/hPQXeVHAAX47tq0tuHhGfFRH/t+D+BGDb2ixMt2HnCFzeWC3/mwCcy2bu5wnAtk12yt4ffjXwLxWW24Mj4vcLDuGL+IYfsCv5GL5d8JrC+xKAbWuzJN/GjCBwsaky/E0ARiQ08SUEYNsmO7UHDO/3P7yJTsnHkwsP4p+PiDuX3DAivq3wngMXArBtbRam3LBzBKZu+i2vJwDnspn7eQKwbZMt2dvDm+gMb6ZT8vFvJx7Iww8gfn7JjSLiT0fERyfe75AHAdi2NgvTbtg5AodF3vrnBOBcNnM/TwC2bbKl+/9vF5bdPSPiXRMO5dJfQbxHRLxzwn2u40AAtq3NwhIz7ByB64q91ccIwLls5n6eAGzbZEv3/fCmMl9YWHp/JiI+NuJwfmXh/MOwl42Y/9zaCcC2tTkj/YaeInCu8Ft6ngCcymT+5wjAtk12zl7/bxFxl8IS/MdnDujhDYSGNxIq+XjSmbnHrpkAbFubJbk3ZgSBsRughesIwIiEJr6EAGzbZOfu8RcV1t4dIuJ1Rw7qj0fEUBclHw+KiOG/CJ67rmE8AViGY2kuSvJvzAgCpQnZYhwBGJHQxJcQgG2b7BJ7+msK6+8BEfF71xzW31k43w0R8cZr5itdIwHYtjYLy8CwcwRKN8QW4wjAuWzmfp4AbNtkl9jT/2fGO/Q94dKB/TMRMRzkJR/PvjTX3LURgG1rs6QGjBlBYO7GqDmeAIxIaOJLCMC2TXapvTy8R3/prwZ+/y0H9/si4oGFtbz0/zkwcCEA29ZmYSkYdo7AUpu+xjwE4Fw2cz9PALZtskvu4W8tLMW7RcQ7IuIbC8ev9b8OEoBta7OwHAw7R2DJTb/2XATgXDZzP08Atm2yS+7fj0TEFxeW42cUjhuGDb8uuOQ6LuYiAOtwveB77u8ZJWHoKQLnwLf0PAE4lcn8zxGAbZvs0nv9lyLi0yqW5fBGQUuv4WI+ArAe2wvGp/6uWEb7utUp6K09RwD6rk0CsG2TXWO/v6RSyT4sIoa3Cl5jDcOcBGA9tmNyVqmM9nebMfBbuYYA9F2fBGDbJrvWPv+6lcv2ThHxthUP/4ELAdi2Nlcuof1Ov9amX2NeAtB3nfYoAE+PiDc09mf4Vb019uexOd8bEZ+9Yul+T4X1TBWA4YcgW8v7de+zcCxnrT2+Yvnse+rWEn0qHgLQd632KAAtZuwHKhyYl/fxayNieMe/pT++stJapgrA0utcYr6hf17OS5Z/L7F+c1xDIEsBDHESgGsS2NFDBKBOMrcQgGH/fvvCy7tfRPxOpUONAGwrDwuXjukuCBCACxL+3poAAaiTga0E4KMR8SULLXF4o6GfqHT4Dz2SABCAhUq3rWkIQFv52HM0BKBO9rcSgKHX/EpE3GOBZf7dioc/Adj28B/4+1iJAAFYCaxpJxMgAJORFQ3YUgCGfvOyoqhvG/SIiPgwAbgNyMjP/AzASFB7uowA7Cnbba+VANTJz9YCMPScOd8K+C+VD/8hXt8C2PZVgDo7Y4d3IQA7THqjSyYAdRKztQAM37sv/c+CBkKPjYhPVJYAAkAA6uzOynchAJWBu91RAgTgKJpFn9hSAN4dEcNP78/9eC4BmIzQtwAmI+t/AAHoP8dZVkgA6mRqSwF43EJLvDEi3lRRArwC4BWAhUq3rWkIQFv52HM0BKBO9rcSgBcuvLwHRcT7K0kAASAAC5dvG9MRgDbyIIoIAlCnCrYQgLdGxPCe/Ut/PIkAjEbqWwCjUe3nQgKwn1y3vtIeBeBzI+IvNvbnNZUOzYve8sGI+LwVi++lFdYz9RWA4X8nbC3vb6nA6SLnS/+9Yvnse+qlE7XmfN4KuO9a7VEAhpe919wTGeZ+ysple/eI+OWVOU8VgBevHE+GvC8Z48oltN/pl0zS2nMRgL7rlAD0JwuvqFSyj4yIj6x46BKAbWuzUhnt7zZrH9pLzk8A+q5PArBtk11yrw5z/XpE3KtiyT6DAHT7alPFMtrXrZbe9GvORwD6rk0C0I8AfDwiHl1YrvcpHDe8udBPriQBXgHYtjYLS8KwcwTWPLCXnpsAnMtm7ucJwLZNdsn9+qzCUrxzRPxCRDyxcPxnRMR7VpAAArBtbRaWg2HnCCy56deeiwCcy2bu5wnAtk12qf37+oi4obAUv/eWw3v4/f7PKZzjqwhAd98KKCwFw84RWGrT15iHAJzLZu7nCUB+AXhfRDywsAwvH9xvmCES/2RhCfAKwLa1WVhShp0jUOPgXuoeBOBcNnM/TwC2bbJL7NNvLCzB4aX737nm0H524XzDmw697Zr5StdIALatzcIyMOwcgdINscU4AnAum7mfJwDbNtm5e/r7C8tv+OG9/3DksB5+mPDLC+cd3nzopiPzTl0rAdi2NgtLwLBzBKZuhC2vJwDnspn7eQKwbZOds7ffERF3Kyy/v3fmkP6NiLh34dzDmxDNWdfFWAKwDMcLnlP/Lky/YecITE3EltcTgHPZzP08Adi2yZbu7eENeP5EYek9IiI+POKQfmXh/MOw4c2IStd2MY4AzGd4wbLk7xnpN/QUgZJkbDWGAJzKZP7nCMC2TbZ0X39rYel9WkT8zwmH89MK7zO8GdGvTbjPdRwIwLa1WZh6w84RuK7YW32MAJzLZu7nCcC2TbZk3w9vvDN8D7/k4yUTD+Xh+/mfX3KjiPiyiPjYxPsd8iAA29ZmYdoNO0fgsMhb/5wAnMtm7ucJwLZNdur+H95wZ/jp/ZKPrys8jH8+IoY3Cyr5eGbhPQcuBGDb2izJtzEjCEzd9FteTwBGJDTxJQRg2yY7dW9/dWGtfXZEvHfGYTy8WVDJxx0i4nWF9yUA29ZmSb6NGUFg6qbf8noCMCKhiS8hANs22Sl7e84h/NrCQ/gwvuFNg0o+HlAoHwRg29osybUxIwgcbqrWPycAIxKa+BICsG2THbv/57wM/48WOPyHOGt/+4EAbFubidta26GP3fQtXEcA2q6ludERgG2b7Jg9PucH8b505g/iXY7vP874AcTvmygiBGDb2pzbW4w/QuDypmr53wTgSBI7eZgAbNtkx+z90l/Fu2dE/OrEQ3dMPKW/gnjXiPgfE+IhANvWZictrr1ljNlkrVxDANqrnyUjIgDbNtlz+/xVM5L9byYctufiOHx+zpsQPTwiPjQyLgKwbW3OKD1DTxE43Eytf04ATmUy/3MEYNsme2r/z3k73iePPGRP3f/Uc3PehvjpI2MjANvWZv7u1ugKTm2s1p4jAI0W0UJhEYBtm+yx/T7nP+R5cET8/shD9tj9xzw+5z8i+rER8RGAbWtzoRZjmssExmyuVq4hAJez19e/exSA4Q1vXpzkz7G3yy39L3lvjIg3jThcl+ovpf8V8X0j4rfOxDlVAL4pSc6H2nz3mbUvlZ858/TV6RpazZyk1B5LABoqnBVC6VEAVsC02pTD/rq8p98YETcU3vE518x3ef4l//2+iPijhbH++Yj4xIl4pwpAYRibDHvDiXUvmZ85c20CZg83nZOU2mMJQN8VSQC2ze9lAXh/RDyoMKTHRMTwrYPaPeL1M4Tl+SfiJQD1c3lYO4VlaNg5AoeQW/+cAJzLZu7nCcC2+bssAH+1MJx7R8TwQ4Nb9ZNnFcY9fMviLUfiJgDb5XOoIx8rEdhqk5bclwCsVASNTEsAtk3EoQC8bEYorzxyiJbs+ZIxwysPjy6M/yFHfmiRABCAwpJqe1jJBttqDAFou5bmRkcA5hKcN/5CAN4ZEXcvnOqpGx/+F73p1yPiXoVruO7XFgkAASgsp7aHXWyYDH8TgLZraW50BGAuwXnjh/310Yj4U4XTPCwihrcKbqWXvKJwHcOwf31pHQRg27zOSKWhpwi0slnHxEEATmUy/3MEYNscDvvrHxSGcKeIeNulQ3PMnl77mqcUruceEfErB+shAASgsJTaHrb2BlxyfgLQdi3NjY4AzCU4b/zwvvq3L5ziew4OyyX3/Ny5PhgRn1e4puGVkOEVkSEGAkAACsuo7WFzN1jN8QSg7VqaGx0BmEtw3vjSw/9xjR7+F73prRExvEJR8vEPCUAT39IpyZ0xIwhcbJIMfxOAEQlNfAkByJe8P5zkneReWIh2kKKf8grA5hJQmD7DzhHIcPBfxEgAzmUz9/MEIFf+bhcRw5682J+t/z28UlHycf+I+JaSgUnGeCfAJIlaI8zWN+1hfARgjQpoZ84MAvCaW74aHL4nvPc/L0l0+A995Hdm5OzbZoxtvU6O/R8Qh71368/b6VKdRbJ1YqfcnwB0VnyXlpNBAKbUq2vzvDogV23n6lKr8M+lCGQqfAKwVNbbnIcAtN2EM/UKsfZVS212rA6iyrRRCEAHBXdiCQSgr6adqbeIte3aO9E2PDWHQKbCJwBzMt3+WALQdhPO1CvE2lcttd+9kkaYaaMQgKRFNjJsAtBX087UW8Tadu2NbCEum0ogU+ETgKnZzXU9AWi7CWfqFWLtq5ZydbJE0WbaKAQgUWEVhEoA+mramXqLWNuuvYJ2YsgYApkKnwCMyWjeawhA2004U68Qa1+1lLerNR55po1CABovppnhEYC+mnam3iLWtmtvZmsx/BiBTIVPAI5lsY/HCUDbTThTrxBrX7XUR4drcBWZNgoBaLCAFgzpUcneWjbT3hFrXwfinvL5iQV7jKkuEchUSATgUvI6++fwn65kqkexypcaWL8G3tFZn2tqOZkKmAA0VTqrBPNuEkCC1IAaOKiBH1yl05j0kwQIgEJoicCPH2z8TLUp1vW/EsR4n4yf0VKD6i2WTJvKKwC9Vd/V9XwdAfDVnxpQA7fUwAci4oFX24RHliJAAJYiaZ6lCAwv+WWqS7HKlxpYpwaetlRTMc/1BDIVrlcArs9hb4/eOyJ+kwSQIDWw6xrQ7yt0dgJQAbJbTCZw34h4hQNg1wdApt4k1uVeAfhoRHxHRNxxctcwYDKBTIXLCCenN/2Ab4iI10XEB8kAGVADXdfAeyLiRyPiEem7VqIFEIBEydpxqHeIiC+MiOGHBJ/gDwaN1MALkknJ9zXC7XAPP94P+m3X2QnAduzdGQEEchMYDq9MPfSpuXGLfmkCmYrXtwCWzr75EEBgDgECMIeesZsTIACbp0AACCCQlAABSJo4Yd9MgACoBAQQQKCMAAEo42ZUIwQIQCOJEAYCCKQjQADSpUzAhwQIwCENnyOAAALjCRCA8axc2SABAtBgUoSEAAIpCBCAFGkS5DECBOAYGY8jgAACpwkQgNN8PNs4AQLQeIKEhwACzRIgAM2mRmBjCBCAMZRcgwACCFwlQACuMvFIIgIEIFGyhIoAAk0RIABNpUMwUwkQgKnEXI8AAgjcTIAAqITUBAhA6vQJHgEENiRAADaE79bzCRCA+QzNgAAC+yRAAPaZ925WTQC6SaWFIIBAZQIEoDJwt1uWAAFYlqfZEEBgPwQIwH5y3eVKCUCXabUoBBCoQIAAVIDsFusRIADrsTUzAgj0TYAA9J3f7ldHALpPsQUigMBKBAjASmBNW4cAAajD2V0QQKA/AgSgv5zuakUEYFfptlgEEFiQAAFYEKap6hMgAPWZuyMCCPRBgAD0kcfdroIA7Db1Fo4AAjMJEICZAA3flgAB2Ja/uyOAQF4CBCBv7kQeEQRAGSCAAAJlBAhAGTejGiFAABpJhDAQQCAdAQKQLmUCPiRAAA5p+BwBBBAYT4AAjGflygYJEIAGkyIkBBBIQYAApEiTII8RIADHyHgcAQQQOE2AAJzm49nGCRCAxhMkPAQQaJYAAWg2NQIbQ4AAjKHkGgQQQOAqAQJwlYlHEhHIJADviYhX+4OBGlADjdTAzyb7VeqnJjqbhFqBQCYBEGuu922QL/lSA23VAAGocKhmuoUN2tYGlQ/5UANqYK0aIACZTucKsa5VaObVxNSAGlADbdUAAahwqGa6hQ3a1gaVD/lQA2pgrRogAJlO5wqxrlVo5tXE1IAaUANt1QABqHCoZrqFDdrWBpUP+VADamCtGiAAmU7nCrGuVWjm1cTUgBpQA23VAAGocKhmuoUN2tYGlQ/5UANqYK0aIACZTucKsa5VaObVxNSAGlADbdUAAahwqGa6hQ3a1gaVD/lQA2pgrRogAJlO5wqxrlVo5tXE1IAaUANt1QABqHCoZrqFDdrWBpUP+VADamCtGiAAmU7nCrGuVWjm1cTUgBpQA23VAAGocKhmuoUN2tYGlQ/5UANqYK0aIACZTucKsa5VaObVxNSAGlADbdUAAahwqGa6hQ3a1gaVD/lQA2pgrRogAJlO5wqxrlVo5tXE1IAaUANt1QABqHCoZrqFDdrWBpUP+VADamCtGiAAmU7nCrGuVWjm1cTUgBpQA23VAAGocKhmuoUN2tYGlQ/5UANqYK0aIACZTucKsa5VaObVxNSAGlADbdUAAahwqGa6xU3RVoFqGPKhBtSAGlinBp6U6XAS6/oE3kkAQrNZp9ngiqsaaKsGHrP+keIOmQj8NAEgAGpADaiBXdTAQzMdTmJdn8AP2fi72Pi+EmvrKzH5kI8tauBu6x8p7pCJwHcRAAKgBtSAGui+Bt6T6WASax0Cw/eEtjBR98RdDagBNVCvBl5W50hxl0wEboiI3yUBJEgNqAE10HUNfEOmg0ms9Qi81MbveuP7KqveV1lYY91iDXwkIu5Z70hxp0wEHk8ACIAaUANqoNsaeHWmA0msdQncPiLeZvN3u/lb/IpETL5SVgP1auBL6x4p7paNwOMIAAFQA2pADXRXAz+S7TAS7zYEXmPzd7f5fZVV76ssrLFurQY+GhF/bJvjxF2zEXh4RPwBCSABakANqIEuauC52Q4h8W5L4Ak2fhcbv7WvRMTjq2M1ULcGfjwi7rDtceLuGQk8kwSQADWgBtRA2hp4u1/7y3j0thHz7SLCewPUtXVfHeGtBtTAEjXwvyPiIW0cJaLISmCQAK8EaEhLNCRzqCM1UKcG3hIR98966Ii7PQLDzwT4wcA6m1eTxFkNqIHSGviBiLhLe0eIiLITGH47wK8Iakyljck4taMG1quB346Ip2Y/ZMTfPoHhzYK8Y+B6G1mTxFYNqIGxNfD+iPj2iPi09o8OEfZCYHjb4K+NiOG/lnyvnxJO+1PCY5uM6xxIaqCdGvh4RLw2Iv5ORNynl0PFOnISuDEiHhsRL4iIH46I10XEOyPiJmJADNSAGlADxTUwHPS/FRH/NSJ+NCL+RUT8dYd++wfl/wfL0hwF2K+PuwAAAABJRU5ErkJggg==;" vertex="1" parent="1">
          <mxGeometry x="360" y="416" width="82" height="82" as="geometry" />
        </mxCell>
        <mxCell id="mW6oyoReorYMUvsAvVY0-8" value="" style="endArrow=classic;html=1;rounded=0;entryX=0;entryY=0.5;entryDx=0;entryDy=0;strokeWidth=4;fillColor=#dae8fc;strokeColor=#6c8ebf;" edge="1" parent="1" source="mW6oyoReorYMUvsAvVY0-2" target="mW6oyoReorYMUvsAvVY0-7">
          <mxGeometry width="50" height="50" relative="1" as="geometry">
            <mxPoint x="240" y="510" as="sourcePoint" />
            <mxPoint x="290" y="460" as="targetPoint" />
          </mxGeometry>
        </mxCell>
        <mxCell id="mW6oyoReorYMUvsAvVY0-10" value="" style="endArrow=none;html=1;rounded=0;entryX=0;entryY=0.5;entryDx=0;entryDy=0;strokeWidth=4;fillColor=#dae8fc;strokeColor=#6c8ebf;endFill=0;" edge="1" parent="1" source="mW6oyoReorYMUvsAvVY0-1" target="mW6oyoReorYMUvsAvVY0-2">
          <mxGeometry width="50" height="50" relative="1" as="geometry">
            <mxPoint x="177" y="459" as="sourcePoint" />
            <mxPoint x="360" y="457" as="targetPoint" />
          </mxGeometry>
        </mxCell>
        <mxCell id="mW6oyoReorYMUvsAvVY0-2" value="" style="shape=image;verticalLabelPosition=bottom;labelBackgroundColor=default;verticalAlign=top;aspect=fixed;imageAspect=0;image=https://upload.wikimedia.org/wikipedia/commons/thumb/5/59/Visual_Studio_Icon_2019.svg/langfr-220px-Visual_Studio_Icon_2019.svg.png;" vertex="1" parent="1">
          <mxGeometry x="240" y="432" width="50" height="50" as="geometry" />
        </mxCell>
        <mxCell id="mW6oyoReorYMUvsAvVY0-11" value="" style="shape=image;verticalLabelPosition=bottom;labelBackgroundColor=default;verticalAlign=top;aspect=fixed;imageAspect=0;image=https://pythonhosted.org/pyglet/programming_guide/window_xp_default.png;" vertex="1" parent="1">
          <mxGeometry x="580" y="424.2" width="160" height="69.61" as="geometry" />
        </mxCell>
        <mxCell id="mW6oyoReorYMUvsAvVY0-12" value="" style="endArrow=classic;html=1;rounded=0;strokeWidth=4;fillColor=#dae8fc;strokeColor=#6c8ebf;exitX=1;exitY=0.5;exitDx=0;exitDy=0;" edge="1" parent="1" source="mW6oyoReorYMUvsAvVY0-7">
          <mxGeometry width="50" height="50" relative="1" as="geometry">
            <mxPoint x="442" y="456.31" as="sourcePoint" />
            <mxPoint x="560" y="457.68" as="targetPoint" />
          </mxGeometry>
        </mxCell>
        <mxCell id="mW6oyoReorYMUvsAvVY0-13" value="" style="shape=mxgraph.signs.tech.computer;html=1;pointerEvents=1;fillColor=#000000;strokeColor=none;verticalLabelPosition=bottom;verticalAlign=top;align=center;" vertex="1" parent="1">
          <mxGeometry x="565" y="400" width="190" height="164.2" as="geometry" />
        </mxCell>
        <mxCell id="mW6oyoReorYMUvsAvVY0-14" value="&lt;b&gt;&lt;font style=&quot;font-size: 16px;&quot;&gt;1&lt;/font&gt;&lt;/b&gt;" style="ellipse;whiteSpace=wrap;html=1;aspect=fixed;fillColor=#fff2cc;strokeColor=#d6b656;" vertex="1" parent="1">
          <mxGeometry x="138.5" y="370" width="20" height="20" as="geometry" />
        </mxCell>
        <mxCell id="mW6oyoReorYMUvsAvVY0-15" value="&lt;b&gt;&lt;font style=&quot;font-size: 16px;&quot;&gt;2&lt;/font&gt;&lt;/b&gt;" style="ellipse;whiteSpace=wrap;html=1;aspect=fixed;fillColor=#fff2cc;strokeColor=#d6b656;" vertex="1" parent="1">
          <mxGeometry x="255" y="510" width="20" height="20" as="geometry" />
        </mxCell>
        <mxCell id="mW6oyoReorYMUvsAvVY0-16" value="&lt;b&gt;&lt;font style=&quot;font-size: 16px;&quot;&gt;3&lt;/font&gt;&lt;/b&gt;" style="ellipse;whiteSpace=wrap;html=1;aspect=fixed;fillColor=#fff2cc;strokeColor=#d6b656;" vertex="1" parent="1">
          <mxGeometry x="380" y="370" width="20" height="20" as="geometry" />
        </mxCell>
        <mxCell id="mW6oyoReorYMUvsAvVY0-17" value="&lt;b&gt;&lt;font style=&quot;font-size: 16px;&quot;&gt;4&lt;/font&gt;&lt;/b&gt;" style="ellipse;whiteSpace=wrap;html=1;aspect=fixed;fillColor=#fff2cc;strokeColor=#d6b656;" vertex="1" parent="1">
          <mxGeometry x="650" y="370" width="20" height="20" as="geometry" />
        </mxCell>
      </root>
    </mxGraphModel>
  </diagram>
</mxfile>
